<?xml version="1.0" standalone="no"?> <!DOCTYPE svg PUBLIC "-//W3C//DTD SVG 1.0//EN" "http://www.w3.org/TR/2001/REC-SVG-20010904/DTD/svg10.dtd" > <svg xmlns="http://www.w3.org/2000/svg" width="100%" height="100%">
<defs >
<font horiz-adv-x="505" ><font-face
    font-family="Multilingual Hand"
    units-per-em="1000"
    panose-1="2 0 6 3 0 0 0 0 0 0"
    ascent="877"
    descent="-201"
    alphabetic="0" />
<missing-glyph horiz-adv-x="364" d="M33 0V666H298V0H33ZM66 33H265V633H66V33Z" />
<glyph unicode=" " glyph-name="space" horiz-adv-x="450" />
<glyph unicode="!" glyph-name="exclam" horiz-adv-x="159" d="M62 4T68 10T84 17T100 11L103 8Q110 1 110 -8T104 -24T88 -31T72 -24L69 -21Q62 -15 62 -6ZM65 664T74 664T90 658T97 642V635Q97 627 96 564Q94 501 96 422Q98 342 99 309Q99 276 99 259V243Q99
234 92 228T76 221T61 227T54 243V259Q54 276 54 309Q53 341 51 421Q49 501 51 565Q52 628 52 635V642Q52 651 58 657Z" />
<glyph unicode="&quot;" glyph-name="quotedbl" horiz-adv-x="299" d="M202 396T193 398T179 408T176 425L184 464Q192 501 196 533Q200 567 203 584L205 600Q207 609 214 614T231 619T245 610T250 593L247 576Q244 561 241 528Q237 494 228 454L220 415Q218 406
210 401ZM79 426T70 427T55 436T50 453L54 483Q58 514 64 550Q70 585 71 591L72 598Q73 607 80 613T97 618T112 610T117 593L116 586Q115 578 108 542Q102 507 99 477L95 447Q94 438 87 432Z" />
<glyph unicode="#" glyph-name="numbersign" horiz-adv-x="721" d="M51 148T50 157T55 173T70 182L187 196Q195 197 203 197Q219 283 239 396Q241 406 243 416Q223 414 206 412L139 401Q130 399 123 405T114 420T117 436T132 445L199 456Q223 460 251 462Q271
567 284 613Q302 674 312 687L319 696Q324 704 333 705T350 701T359 686T355 669L348 660Q342 650 327 600Q316 560 298 464Q333 464 374 462Q416 460 450 459Q457 490 462 515Q474 575 475 592L476 611Q477 621 484 627T500 633T515 625T521 609L520 590Q519 569
506 506Q501 485 496 457Q525 457 552 456Q629 456 645 449L658 444Q666 440 670 432T671 415T658 403T641 402L628 408Q615 411 552 411Q521 412 488 412Q482 379 475 341Q464 276 456 210Q507 209 526 206L551 202Q561 201 566 194T571 177T562 163T544 158L519
162Q504 164 451 165Q450 146 448 128Q440 15 436 -8L433 -30Q432 -39 425 -45T408 -50T393 -41T389 -24L392 -2Q395 20 403 130Q405 148 406 165Q404 165 402 165Q328 164 241 156Q239 142 236 128L216 25Q215 16 207 11T190 7T176 17T172 34L192 136Q193 142
195 151Q193 151 192 151L75 137Q66 136 59 142ZM442 414Q410 415 372 417Q327 419 289 418Q286 404 284 388Q265 283 250 202Q332 209 402 210Q406 210 411 210Q419 281 430 349Q437 384 442 414Z" />
<glyph unicode="$" glyph-name="dollar" horiz-adv-x="493" d="M201 765T210 765T226 760T233 744L236 682Q237 666 238 648Q266 648 304 635Q363 614 388 584Q409 559 424 538L439 518Q444 511 443 502T435 487T418 482T403 491L388 511Q373 531 353 556Q337
576 289 592Q260 602 239 603Q241 560 242 503Q244 430 246 352Q266 342 288 332Q334 310 367 275Q402 240 411 206Q420 174 415 125Q408 70 370 40Q334 11 298 4Q280 0 257 -1Q260 -64 259 -82L258 -103Q258 -112 251 -118T235 -125T220 -117T213 -101L214 -80Q215
-65 212 0Q167 4 139 18Q106 34 79 88Q54 138 52 156Q50 172 50 179V186Q50 195 56 201T72 208T88 202T95 186V179Q95 175 97 162Q98 151 119 108Q139 68 158 58Q178 49 210 46Q206 143 203 263Q203 275 203 297T202 323Q192 328 182 333Q133 357 100 403Q65 452
74 505Q82 556 126 596Q161 628 193 640Q192 662 191 679L188 742Q188 751 194 758ZM247 302Q247 295 248 264Q251 142 255 44Q274 45 289 48Q315 53 342 75Q366 94 370 130Q375 171 368 194Q362 217 335 244Q307 273 268 292Q258 296 247 302ZM200 374Q199 449
197 502Q196 552 195 591Q176 581 156 562Q124 533 118 497Q112 463 137 429Q163 392 200 374Z" />
<glyph unicode="%" glyph-name="percent" horiz-adv-x="647" d="M462 221Q452 206 433 174Q414 142 423 106Q430 74 456 66Q486 56 517 71Q546 84 550 108Q556 137 545 165Q533 196 527 204Q522 209 513 212Q506 214 503 213L493 208Q485 204 476 207T463 218Q462
219 462 221ZM479 251L483 253Q500 262 525 255Q548 249 562 232Q573 219 587 181Q602 141 594 100Q586 53 536 30Q490 8 443 23Q392 39 379 96Q366 150 394 196Q417 236 428 251L438 265Q444 272 453 273T470 270Q478 263 479 251ZM128 643T135 638T143 623T139
606L115 575Q96 550 95 498Q94 449 112 435Q125 423 164 445Q207 471 216 502Q225 536 216 566Q209 590 200 592Q186 595 181 594L174 592Q165 589 157 593T145 606T146 623T159 634L167 637Q181 642 209 636Q244 629 259 579Q271 536 259 490Q246 442 186 407Q121
369 83 400Q49 428 50 499Q51 566 80 603L103 634Q109 641 118 642ZM155 -18T146 -15T133 -4T132 14L135 24Q139 35 184 132Q229 227 285 331Q341 435 383 511Q425 587 431 595L435 602Q441 609 450 611T466 608T476 593T472 576L468 570Q463 562 422 489Q381 414
325 310Q269 207 225 112Q181 19 178 10L174 -1Q171 -9 163 -13Z" />
<glyph unicode="&amp;" glyph-name="ampersand" horiz-adv-x="598" d="M192 363Q221 389 240 402Q270 423 310 460Q348 496 363 537Q378 577 368 606Q361 632 335 639Q307 648 244 613Q181 578 163 529Q145 480 165 421Q175 391 192 363ZM185 296Q176 287 167
279Q103 218 97 181Q90 145 109 112Q128 79 172 63Q221 46 278 48T382 73Q400 82 416 93Q414 95 413 96Q378 128 316 174Q253 221 200 278Q192 286 185 296ZM449 124Q454 129 457 134Q487 174 494 196Q501 220 502 239L504 261Q504 270 511 276T527 282T543 274T548
258L547 236Q545 212 537 183Q527 152 493 107Q488 100 483 94Q496 82 511 68L541 40Q548 33 548 24T543 8T527 1T511 7L480 35Q466 49 450 63Q428 45 401 32Q346 6 280 3T157 20Q97 42 70 89Q43 136 52 189Q61 241 136 312Q147 323 158 332Q136 368 122 407Q98
480 120 544Q143 609 222 652Q302 696 348 683Q396 668 411 620Q425 575 405 522Q386 470 341 428Q298 387 265 365Q248 353 218 326Q226 317 234 308Q283 254 343 210Q406 163 443 130Q446 127 449 124Z" />
<glyph unicode="&apos;" glyph-name="quotesingle" horiz-adv-x="169" d="M77 386T68 387T54 397T50 414L56 443Q61 472 68 520Q75 566 75 582V600Q75 609 82 615T98 622T113 616T120 599V582Q119 563 113 514Q106 465 100 435L95 406Q93 397 85 392Z" />
<glyph unicode="(" glyph-name="parenleft" horiz-adv-x="330" d="M269 735T275 729T281 713T273 697L239 666Q208 637 169 572Q131 507 109 381T101 167Q115 78 137 23Q157 -29 198 -69Q241 -112 255 -123L270 -134Q278 -140 279 -149T275 -166T260 -174T243
-170L228 -158Q211 -146 166 -101Q118 -54 95 7Q72 66 56 159Q41 254 65 388T131 594Q172 666 209 699L243 730Q250 736 259 736Z" />
<glyph unicode=")" glyph-name="parenright" horiz-adv-x="388" d="M49 716T55 723T70 730T87 725L126 691Q167 656 219 588Q271 519 302 436Q334 351 338 211Q343 68 304 -4Q266 -73 225 -110Q184 -146 159 -155L139 -162Q130 -166 122 -162T110 -149T111 -132T124
-120L144 -113Q160 -107 195 -76Q230 -45 264 18Q298 79 293 210Q289 343 260 420Q231 497 183 560Q134 625 97 657L58 691Q51 697 50 706Z" />
<glyph unicode="*" glyph-name="asterisk" horiz-adv-x="368" d="M49 352T50 361T60 375T77 378L98 374Q119 369 138 366Q144 365 149 364Q150 375 151 389Q155 420 157 431L159 441Q160 450 168 455T185 459T199 449T203 432L201 423Q199 414 196 384Q195 376
194 368Q196 369 198 369Q221 374 251 376Q280 377 289 377H296Q306 377 312 371T319 355T313 339T296 332H289Q281 332 254 331Q227 329 207 325Q203 324 200 323Q204 317 210 311Q233 287 253 268Q274 247 280 240L286 233Q292 226 292 217T284 202T268 195T252
203L246 210Q241 216 221 236Q201 255 178 279Q171 287 166 293Q158 279 143 254Q129 227 126 218L122 206Q120 198 112 194T94 191T81 202T79 220L83 231Q87 245 104 275Q120 304 128 319Q129 320 131 322Q130 322 130 322Q110 325 89 330L68 335Q59 336 54 344Z"
/>
<glyph unicode="+" glyph-name="plus" horiz-adv-x="525" d="M247 539T256 539T271 533T278 516V457Q278 413 286 336Q305 335 325 335Q406 333 430 332L454 331Q463 330 469 323T476 307T468 292T452 286L428 287Q404 288 323 290Q307 290 291 291Q291 287 291
284Q305 166 305 119V73Q305 64 298 58T282 51T267 57T260 73V119Q260 163 247 278Q246 285 245 292Q202 293 157 295L72 297Q63 298 57 304T50 320T57 336T73 342L158 340Q200 339 240 337Q233 412 233 457V517Q233 526 240 532Z" />
<glyph unicode="," glyph-name="comma" horiz-adv-x="187" d="M90 101T98 104T115 103T127 91L132 77Q139 59 137 21Q135 -18 121 -43Q107 -69 93 -78L84 -83Q76 -88 67 -86T53 -75T50 -58T61 -44L69 -39Q74 -36 81 -22Q90 -5 92 23Q93 52 90 62L85 76Q82 84 86 92Z" />
<glyph unicode="-" glyph-name="hyphen" horiz-adv-x="400" d="M49 281T50 290T58 305T75 311L104 308Q134 305 169 302T249 294Q293 291 312 289L330 287Q339 286 345 279T351 263T343 248T326 242L308 244Q289 246 245 249Q201 253 166 256T100 263L70 266Q61
267 55 274Z" />
<glyph unicode="." glyph-name="period" horiz-adv-x="147" d="M50 59T56 65T72 72T88 66L91 63Q98 56 98 47T92 31T76 24T60 31L56 34Q50 40 50 49Z" />
<glyph unicode="/" glyph-name="slash" horiz-adv-x="434" d="M74 -125T66 -122T53 -111T51 -93L76 -16Q101 63 166 222Q230 380 271 476Q313 571 327 610L341 650Q344 658 352 662T369 663T382 652T383 634L369 595Q354 554 313 458Q272 363 208 205Q144 48 119
-29L94 -107Q91 -116 83 -120Z" />
<glyph unicode="0" glyph-name="zero" horiz-adv-x="554" d="M61 357Q53 393 52 437Q51 490 76 543Q102 598 158 636Q215 675 296 675Q378 675 419 635Q456 598 478 536Q499 475 504 419Q508 362 480 239Q450 114 390 54T277 -17Q221 -28 152 29Q85 85 68 183Q52
275 51 307L50 337Q50 350 61 357ZM97 295Q100 261 112 191Q127 109 181 64Q234 20 268 28Q307 36 358 86T436 249Q463 365 459 415Q454 466 435 521Q417 573 387 604Q360 630 296 630Q229 630 184 599Q137 567 117 524Q96 480 97 438Q98 393 106 359L115 322Q117
314 113 306T99 295Q98 295 97 295Z" />
<glyph unicode="1" glyph-name="one" horiz-adv-x="358" d="M56 577T52 585T51 602T63 615L101 633Q140 652 187 665Q235 679 248 678Q256 677 262 673T272 665T276 652T277 639T277 625T277 616Q276 579 285 430Q294 280 299 203Q303 126 306 83Q308 39 308 27V14Q308
5 301 -1T285 -8T270 -1T263 15V27Q263 38 261 80T254 201Q249 277 240 427Q231 578 232 617Q232 624 232 630Q219 628 199 622Q156 610 120 593L82 575Q74 571 65 574Z" />
<glyph unicode="2" glyph-name="two" horiz-adv-x="498" d="M85 506T77 511T68 525T71 542L100 585Q132 632 178 653Q226 674 281 661Q336 647 372 606Q408 564 411 511Q414 460 375 389Q339 322 278 251Q218 180 167 122Q128 77 107 50Q108 51 110 51Q165 56
231 63Q300 70 344 68Q387 65 408 64L428 62Q437 61 443 54T449 38T441 22T424 17L404 19Q384 21 342 23Q301 25 236 18Q169 11 114 6Q104 6 90 5T64 11T50 36Q49 50 60 64Q81 92 133 151Q184 210 243 280Q301 348 336 411Q368 471 366 509Q364 546 338 576Q312
607 271 617Q230 627 196 612Q162 597 137 560L108 517Q103 510 94 508Z" />
<glyph unicode="3" glyph-name="three" horiz-adv-x="566" d="M88 472T80 475T67 486T66 504L77 536Q90 575 146 617T266 662Q333 664 373 616Q413 570 413 529T364 432Q342 407 320 388Q347 383 381 372Q471 344 500 284Q528 225 508 158Q488 92 426 45Q366 -1
295 -11Q223 -20 157 13Q90 48 70 94Q52 136 51 151L50 162Q49 171 55 178T71 186T87 181T95 165L96 154Q97 145 111 111Q125 80 177 54Q231 26 289 34Q348 42 399 81Q449 119 465 171Q480 221 459 264Q438 307 368 329Q294 353 265 345Q264 344 261 343T252 340T239
338T228 344T221 361T223 380T233 390T246 395T254 398Q290 416 330 461Q367 504 367 529T339 587Q312 618 267 617Q218 615 173 581T119 522L108 489Q105 481 97 477Z" />
<glyph unicode="4" glyph-name="four" horiz-adv-x="575" d="M360 241Q354 317 356 392Q358 502 360 554Q362 588 360 608Q356 605 353 603Q320 577 271 505Q221 430 174 354Q127 278 105 231Q100 221 97 213Q119 215 158 221Q218 231 297 237Q333 240 360 241ZM405
242Q407 241 410 241Q442 239 468 238Q496 235 506 231L512 229Q520 226 524 217T525 200T512 188T495 187L489 190Q483 191 464 193Q440 195 408 196Q409 186 410 175Q422 66 426 33L431 -1Q432 -10 426 -17T411 -26T395 -22T386 -6L382 27Q378 61 366 171Q364
183 363 196Q337 195 300 192Q223 186 165 177Q103 166 80 168Q64 170 56 183T50 210Q52 226 64 250Q87 299 135 377Q183 455 234 530Q286 608 325 638Q373 675 395 646Q400 640 402 631Q408 606 405 552Q403 500 401 392Q399 317 405 242Z" />
<glyph unicode="5" glyph-name="five" horiz-adv-x="580" d="M465 606T463 597T454 583T437 579L411 585Q387 589 303 596Q220 603 181 598Q162 596 153 592Q151 575 155 526Q161 463 168 396Q175 344 176 315Q190 326 212 344Q271 392 305 402Q342 412 413 391Q486
369 510 328Q532 289 531 215Q529 137 459 67Q391 0 316 -21Q242 -41 176 -29Q105 -17 73 33Q39 86 57 116L67 134Q72 142 81 144T98 143T108 129T106 112L96 94Q94 84 111 57Q132 24 184 15Q240 5 304 23Q368 40 427 99Q485 156 486 216Q487 278 471 306Q456 331
400 348Q341 365 318 358Q292 351 241 309Q183 262 171 257Q159 253 148 259T134 274Q130 284 131 301Q131 326 124 391Q116 458 111 522Q105 591 111 609Q115 622 127 629T149 639T176 643Q219 648 307 641Q393 634 420 629L446 624Q455 622 460 614Z" />
<glyph unicode="6" glyph-name="six" horiz-adv-x="586" d="M466 611T465 602T455 588T438 584L412 590Q391 594 325 573Q258 552 213 518Q169 484 128 403Q88 323 96 216Q104 110 147 65Q189 19 245 14Q302 8 357 37Q413 68 452 122Q489 175 491 227T478 303Q464
326 417 349Q369 373 309 373T204 355Q162 337 154 322L142 299Q138 291 129 289T112 290T101 303T103 320L114 343Q130 372 186 396Q239 419 309 419Q380 418 437 390Q496 361 517 326Q538 292 536 226T488 96Q443 33 378 -2Q311 -38 240 -31Q168 -24 114 34Q61
91 51 212Q43 332 88 423Q133 514 186 554Q237 593 312 616Q389 640 420 634L447 629Q456 627 461 619Z" />
<glyph unicode="7" glyph-name="seven" horiz-adv-x="523" d="M50 610T50 619T57 635T74 641L116 639Q159 636 242 635Q324 633 376 635Q431 637 447 634Q465 630 471 614T471 585Q464 568 418 491Q374 417 337 332Q301 249 295 167Q288 83 290 48L292 12Q292
3 286 -4T270 -11T254 -6T247 10L245 46Q243 83 250 171Q257 261 296 350Q333 437 379 514Q411 567 423 591Q407 591 378 590Q325 588 241 590Q157 592 114 594L71 596Q62 596 56 603Z" />
<glyph unicode="8" glyph-name="eight" horiz-adv-x="503" d="M254 330Q240 321 228 314Q214 306 202 300Q169 283 131 237Q95 195 95 173Q95 148 118 108Q140 69 192 49Q247 29 282 34Q315 40 359 83Q403 127 408 148Q412 168 395 204Q377 242 347 268Q314 296
285 312Q266 323 254 330ZM170 333Q150 352 120 405Q85 467 85 514Q84 563 119 607Q154 651 195 661Q234 671 290 654Q348 637 376 601Q404 566 412 529Q420 488 386 440Q356 398 296 358Q302 355 308 351Q340 333 376 302Q414 269 436 223Q459 174 452 139Q444
105 390 51Q336 -2 289 -10Q242 -18 176 7Q109 33 79 86Q51 136 50 172Q49 211 96 266Q135 311 170 333ZM204 363Q207 365 209 367L218 373Q231 382 248 380Q250 381 250 381Q260 388 271 395Q324 431 350 467Q372 498 368 520Q362 546 341 573Q321 598 278 611Q233
624 206 617Q180 611 154 579Q129 548 130 515Q130 479 159 427Q189 374 203 364L204 363Z" />
<glyph unicode="9" glyph-name="nine" horiz-adv-x="531" d="M418 341Q419 367 419 397Q417 475 405 533Q394 587 375 608Q357 627 306 634Q256 641 183 591Q111 541 97 469Q84 401 144 346Q206 288 243 286Q283 283 353 312Q397 330 418 341ZM464 363Q472 361
476 356Q482 349 482 340T473 324L462 314Q462 311 462 310Q460 285 456 265Q448 212 416 156Q384 98 332 69Q279 39 219 38L165 37Q155 37 149 43T142 59T148 75T164 82L218 83Q267 84 309 108Q351 131 377 178Q404 227 412 273Q413 280 415 289Q396 281 370 270Q291
238 241 241Q188 245 113 313Q35 384 53 478Q70 568 158 628Q245 688 312 678Q379 669 408 638Q435 609 449 542Q462 480 464 398Q464 380 464 363Z" />
<glyph unicode=":" glyph-name="colon" horiz-adv-x="152" d="M50 101T56 107T72 114T88 107L91 104Q98 98 98 89T92 73T76 66T60 72L56 76Q50 82 50 91ZM55 444T61 450T77 457T93 451L96 448Q103 441 103 432T97 416T81 409T65 416L62 419Q55 425 55 434Z" />
<glyph unicode=";" glyph-name="semicolon" horiz-adv-x="173" d="M79 88T88 90T105 87T115 73L121 47Q128 17 118 -30Q109 -76 100 -92L92 -106Q87 -114 78 -116T61 -114T51 -100T53 -83L61 -70Q67 -60 74 -21Q82 16 77 37L71 63Q69 72 74 80ZM57 449T63 455T79
462T96 456L99 453Q105 446 105 437T99 421T83 414T67 421L64 424Q57 430 57 439Z" />
<glyph unicode="&lt;" glyph-name="less" horiz-adv-x="438" d="M385 413T387 404T385 387T371 376L350 371Q332 366 279 342Q224 316 162 290Q125 273 105 265Q113 255 127 242Q172 197 224 164Q279 129 301 111Q324 91 331 81L337 74Q342 66 341 57T332 42T315
38T300 47L295 55Q291 60 272 76Q252 93 200 126Q144 161 95 209Q94 210 92 212Q22 280 70 299Q84 304 144 331T260 383Q316 409 339 415L360 420Q369 422 377 418Z" />
<glyph unicode="=" glyph-name="equal" horiz-adv-x="524" d="M51 184T50 193T55 210T71 217L150 222Q230 227 315 221Q398 216 422 216H447Q456 216 462 209T469 193T463 178T447 171H422Q397 171 312 176Q230 182 153 177L74 172Q65 172 58 178ZM76 402T76 411T84
426T101 432L160 428Q220 424 309 423T425 421L452 422Q461 423 467 417T474 401T469 385T453 377H427Q400 376 309 378T158 383L98 387Q89 388 83 395Z" />
<glyph unicode="&gt;" glyph-name="greater" horiz-adv-x="477" d="M49 424T52 432T63 445T81 446L100 439Q120 431 202 391Q282 352 340 328Q399 304 411 298Q427 291 427 278T420 256T406 243Q387 232 337 209Q288 186 217 150T114 97L83 80Q75 76 66 78T53
89T51 106T62 120L93 136Q124 153 196 190T318 250Q344 262 361 270Q344 278 323 287Q263 311 182 351Q102 390 84 397L65 404Q57 407 53 415Z" />
<glyph unicode="?" glyph-name="question" horiz-adv-x="490" d="M245 27T251 33T267 40T283 34L286 31Q293 24 293 15T287 0T271 -7T255 -1L252 2Q245 9 245 18ZM68 483T60 488T51 502T54 519L79 558Q108 602 150 625Q191 648 244 651Q297 654 335 641T402 604Q435
577 440 549Q444 522 424 488Q406 458 383 434Q361 412 330 381Q302 354 292 328Q281 301 281 289Q280 274 281 268L282 261Q282 251 277 244T262 236T245 241T237 256L236 264Q235 273 236 291Q237 311 250 344Q263 379 298 413Q329 444 350 465Q370 486 385 511Q397
531 395 542Q393 553 374 569Q350 588 320 598Q290 608 247 606Q204 604 172 586T117 533L91 494Q86 486 77 485Z" />
<glyph unicode="@" glyph-name="at" horiz-adv-x="835" d="M578 410Q586 405 589 396T587 379L582 370Q578 361 551 300Q526 242 524 166Q521 93 530 78Q530 77 533 76T548 72T575 69Q618 70 671 136Q727 206 738 290Q750 374 703 493Q657 608 591 640Q525 672
408 649Q290 626 198 532Q106 440 96 290Q87 139 147 49Q207 -44 260 -72T375 -100Q437 -99 474 -81Q514 -61 525 -54L537 -47Q545 -43 554 -45T567 -56T570 -73T559 -87L548 -93Q535 -100 494 -121Q448 -144 375 -145Q302 -146 239 -112T109 24Q41 128 51 293Q62
459 166 564Q268 668 399 693Q531 719 611 680Q692 641 745 509Q796 380 783 284Q770 187 706 108Q640 25 576 24Q509 24 491 55Q490 56 490 57Q482 53 464 46Q429 31 385 28Q333 25 286 88Q242 148 247 212Q253 275 317 342T440 417Q496 424 529 412L551 405Q563
418 578 410ZM479 103Q477 125 479 168Q481 252 510 318Q523 349 530 364L514 370Q491 378 446 372Q404 367 351 311T292 207Q288 161 322 115Q354 72 382 73Q418 75 446 87Q467 96 479 103Z" />
<glyph unicode="A" glyph-name="A" horiz-adv-x="553" d="M74 284T75 293T83 308T99 314L111 313Q116 332 122 351Q156 461 185 529Q214 596 220 613Q220 613 221 616T222 621T225 626T229 631T236 636Q243 640 249 639T259 635T266 629T270 622T272 619Q276 609
297 560Q318 511 368 387Q388 337 403 298Q419 291 415 274Q415 272 414 271Q430 231 439 206Q461 149 477 100Q493 52 497 41L502 30Q506 21 503 13T491 1T473 0T461 12L456 24Q450 37 434 86Q419 134 397 190Q387 217 370 260Q350 262 290 261Q218 260 157 265L145
266Q126 193 114 118L95 3Q93 -6 86 -11T69 -16T55 -7T50 10L69 125Q81 198 99 269H96Q87 270 81 277ZM157 310H160Q219 305 289 306Q332 307 352 306Q340 335 326 370Q277 494 256 542Q252 552 248 561Q239 541 226 512Q198 445 165 338Q161 324 157 310Z" />
<glyph unicode="B" glyph-name="B" horiz-adv-x="574" d="M118 342Q122 347 126 349T132 352T138 354T145 355Q176 364 217 365Q219 365 219 365Q233 369 250 376Q275 387 307 404Q357 432 377 470Q394 504 393 515Q390 525 364 544Q336 566 276 580Q215 595 173
595Q131 595 102 589Q99 588 96 587Q103 562 108 498Q113 441 118 342ZM223 320Q189 311 156 307Q156 307 149 304T135 303T120 312Q126 198 137 128L146 78Q167 74 197 71Q247 68 305 78Q362 87 412 116Q458 142 472 173Q485 203 476 229Q465 257 428 281Q388
306 330 312Q292 317 261 318Q242 320 226 320H223ZM107 43L84 52Q75 55 71 63T71 81Q74 88 81 92T97 94L93 120Q81 194 74 313Q74 317 74 324Q68 433 63 494Q58 557 52 576Q47 592 53 605Q62 626 93 633Q126 640 173 640Q220 640 287 624Q356 607 391 580Q429
552 436 527Q443 501 417 450Q391 399 329 365Q324 362 318 359Q327 358 335 357Q403 349 452 319Q502 287 518 245Q533 201 513 155Q494 110 434 76Q378 45 313 33Q249 22 194 26Q163 29 141 33Q136 30 131 29Q114 26 107 43Z" />
<glyph unicode="C" glyph-name="C" horiz-adv-x="652" d="M596 438T587 435T570 436T559 449L551 470Q545 489 520 525Q497 560 443 596Q393 629 317 616Q241 602 191 546Q138 488 111 412Q85 337 102 259Q119 179 159 122Q197 67 252 49Q308 30 370 41Q433 52
476 83Q520 115 535 139Q546 155 548 162V167Q548 176 554 183T569 190T585 185T593 169L594 162Q594 158 593 154T592 146T588 138T584 131T579 123T573 114Q553 84 503 47Q451 9 378 -4Q305 -16 237 6Q168 30 122 96Q77 161 58 250Q38 340 69 427Q99 512 157
576Q218 644 309 660Q402 676 468 633Q529 593 558 550Q586 509 594 485L601 464Q604 455 600 447Z" />
<glyph unicode="D" glyph-name="D" horiz-adv-x="573" d="M131 96Q138 102 146 102L173 103Q199 105 244 110Q286 115 338 136Q389 156 428 201Q466 244 475 304Q485 366 470 424Q455 481 417 517Q378 555 320 576Q260 598 218 603Q176 609 123 606Q107 606 97
603Q102 580 106 531Q111 471 117 355Q122 239 126 170Q129 120 131 96ZM135 61Q135 52 129 45T115 37Q106 36 99 42T90 57L88 77Q86 97 81 167Q77 237 72 353Q67 468 61 527Q56 585 52 602Q47 617 53 627T73 642T97 649T122 651Q178 654 224 648Q271 642 336 618Q403
594 449 550Q496 504 513 435Q531 368 520 297Q509 224 462 171Q415 118 355 94Q297 71 249 65Q203 60 175 59L148 57Q141 57 135 61Z" />
<glyph unicode="E" glyph-name="E" horiz-adv-x="569" d="M467 648T467 639T461 623T445 616L391 615Q338 615 267 612Q197 610 143 602Q103 596 98 577Q91 548 101 477Q109 427 113 375Q126 374 158 371Q217 367 270 363Q323 358 335 358Q350 357 360 354L368
352Q377 350 381 342T384 325T373 312T356 309L348 311Q343 312 333 313Q320 313 267 318Q214 322 155 326Q134 328 116 329Q116 324 117 319Q121 238 126 175Q131 110 133 80Q134 64 136 56Q146 53 169 53Q209 51 273 58Q338 65 397 72Q456 79 474 82L493 85Q502
87 509 82T519 67T516 51T501 41L482 38Q463 34 403 27Q343 20 278 13Q211 6 168 8Q166 8 159 8T151 8T143 8T134 9T128 11T121 13T115 15T108 19T103 25Q90 39 88 77Q86 107 81 171Q76 235 72 316Q71 326 71 335Q62 342 62 353Q62 362 68 369Q64 421 57 470Q45
551 55 588Q67 636 136 646Q192 654 265 657Q337 660 391 660L444 661Q454 661 460 655Z" />
<glyph unicode="F" glyph-name="F" horiz-adv-x="527" d="M71 277Q69 293 82 301Q79 335 75 371Q66 455 59 515Q51 575 50 585Q49 594 52 600T62 610T75 615T91 617T108 616T123 614T135 613Q196 607 271 605T392 602Q438 602 447 601H456Q465 600 471 593T478
577T470 562T454 556H445Q437 557 392 557Q347 557 270 559T131 568Q111 570 97 570Q99 552 103 520Q111 461 120 376Q123 343 126 310Q164 317 220 323Q275 328 306 330Q341 333 352 329L360 326Q369 324 373 316T375 298T364 285T346 284L339 286Q332 287 309
285Q278 283 224 278Q171 273 135 266L131 265Q134 239 136 215Q144 140 152 93L161 45Q162 36 157 29T142 20T126 23T116 38L108 85Q100 134 92 211Q89 236 86 260Q74 265 71 277Z" />
<glyph unicode="G" glyph-name="G" horiz-adv-x="659" d="M531 434T523 430T506 429T493 440L484 457Q475 476 460 520Q448 556 423 583Q400 607 356 613Q312 619 231 567Q148 514 119 455T97 279Q105 160 132 110Q159 62 209 38Q259 13 345 34Q431 54 488 120Q547
189 558 221Q567 248 563 261Q559 271 542 279Q521 288 472 288Q419 287 386 283Q357 280 350 277L341 273Q332 270 324 273T312 285T311 302T323 315L332 318Q344 323 381 328Q416 332 471 333Q530 333 561 320Q595 304 606 276Q615 248 600 206Q586 167 522 91Q456
14 355 -10Q254 -34 189 -3Q126 28 93 89Q61 147 52 276Q43 405 78 475T207 605Q302 666 362 658Q421 650 456 613Q487 580 503 534Q516 493 524 477L533 460Q537 452 534 443Z" />
<glyph unicode="H" glyph-name="H" horiz-adv-x="536" d="M457 673T466 672T482 664T487 648L479 580Q472 515 474 382Q474 382 474 381T474 379Q481 374 483 365Q485 352 474 343Q475 237 474 174Q474 98 474 69L473 40Q473 30 467 24T451 17T435 24T428 40L429
69Q429 98 429 174Q430 234 429 333Q397 328 336 321Q273 315 205 307T108 295L106 294Q108 212 116 155L126 78Q128 69 122 62T107 53T91 57T82 72L71 149Q63 210 61 297Q55 302 54 310Q52 321 60 329Q60 341 60 354Q58 478 56 528T52 596L50 614Q49 624 55 631T70
639T87 634T95 619L97 601Q98 582 100 531T104 355Q105 347 105 340Q134 344 199 351Q268 359 331 366Q394 373 425 378L429 379Q429 379 429 380T429 382Q427 517 435 585L442 652Q443 661 450 667Z" />
<glyph unicode="I" glyph-name="I" horiz-adv-x="169" d="M61 635T70 635T87 630T95 615L99 572Q102 529 107 402Q111 276 114 196Q118 116 118 88Q118 63 119 58L120 51Q121 42 115 35T100 26T84 30T75 45L74 52Q73 60 73 88Q73 115 69 194Q66 274 62 400Q58
526 54 568L50 611Q49 620 55 627Z" />
<glyph unicode="J" glyph-name="J" horiz-adv-x="454" d="M369 624T378 624T394 618T402 603L403 571Q405 538 405 426Q405 311 384 245Q364 180 332 130Q298 77 235 53Q170 28 124 53Q80 77 64 120L51 155Q48 163 52 171T64 183T81 182T94 170L106 135Q116 108
145 92Q173 77 219 95Q268 114 294 155Q323 199 341 259Q360 318 360 426Q360 537 358 569L357 601Q356 610 362 617Z" />
<glyph unicode="K" glyph-name="K" horiz-adv-x="628" d="M60 693T69 694T85 690T95 675L102 625Q109 575 122 425Q125 387 128 351Q156 381 215 425Q277 471 334 509Q389 545 409 564L430 583Q436 590 445 590T461 582T468 566T460 550L439 531Q417 510 359 471Q304
436 246 392Q251 390 254 387L308 327Q362 267 410 207T499 91Q539 38 555 20L573 0Q579 -7 579 -16T572 -32T556 -38T540 -30L522 -10Q504 10 463 65Q423 118 376 178T275 297L221 356Q216 362 215 369Q176 338 157 317L132 289Q136 221 138 162Q142 50 142 14V-22Q141
-32 135 -38T119 -45T103 -39T97 -22V14Q97 49 93 161Q89 272 77 421T57 619L50 668Q49 678 54 685Z" />
<glyph unicode="L" glyph-name="L" horiz-adv-x="539" d="M61 622T70 622T87 617T95 602L98 563Q101 524 109 411Q117 295 108 209Q99 125 99 85Q100 47 110 19Q115 8 119 3Q136 4 187 14Q248 26 328 35Q407 43 436 45L465 47Q474 48 481 42T489 27T484 10T468
2L439 0Q411 -2 333 -10Q255 -18 196 -30Q134 -42 117 -43Q86 -44 68 3Q55 39 54 84Q54 127 63 214Q72 296 64 407Q57 520 53 559L50 598Q49 607 55 614Z" />
<glyph unicode="M" glyph-name="M" horiz-adv-x="645" d="M87 47T78 47T62 54T56 70V115Q57 160 58 247Q59 334 57 420T52 538Q51 571 51 591Q46 608 65 616Q74 622 82 619T94 613T103 601T110 586T114 572T117 563Q141 507 177 416Q214 324 232 278Q250 233 272
184Q274 179 276 174Q285 198 298 242Q324 328 361 411T440 563Q483 634 494 645Q504 655 513 655T529 650T540 634T548 617T551 606Q561 565 570 474Q579 384 582 269Q585 155 590 84Q596 13 596 -5V-22Q596 -31 589 -38T573 -45T558 -38T551 -22V-5Q551 11 546
81Q540 153 537 268Q534 381 525 470Q517 550 509 589Q497 570 479 540Q438 473 402 393T342 230Q315 141 302 124Q291 113 278 113T257 122Q245 134 230 165Q208 215 190 262Q172 308 136 399Q116 449 99 489Q100 460 101 421Q104 335 103 247T101 114V69Q100
60 94 54Z" />
<glyph unicode="N" glyph-name="N" horiz-adv-x="480" d="M91 59T82 58T65 61T56 76L54 87Q51 99 50 176Q49 252 52 347Q54 442 56 501Q57 559 56 575Q47 591 67 604Q83 613 91 609T102 595L104 586Q110 571 149 492T247 314Q307 214 351 148Q372 118 386 97Q385
127 384 171Q381 278 379 363Q377 449 375 520L372 591Q372 600 378 607T394 614T410 609T417 592L420 521Q422 450 424 364Q426 279 429 172Q432 63 429 42Q428 37 427 32T417 20T397 15Q393 16 390 17T384 20T380 24T376 28T374 33T372 36Q359 57 314 123Q269
190 209 291T109 472Q105 479 101 489Q99 432 97 346Q94 252 95 177Q96 105 98 95L100 84Q102 75 97 67Z" />
<glyph unicode="O" glyph-name="O" horiz-adv-x="658" d="M54 304Q54 306 54 307L51 325Q48 347 63 415Q77 484 121 545Q166 607 257 645Q349 683 411 670Q472 657 522 618Q573 577 596 492Q618 410 601 331Q585 253 518 160Q450 67 379 34Q305 1 203 33Q99 67
71 146Q46 220 51 270L54 304ZM97 325Q101 318 100 311L96 266Q92 225 114 161Q134 103 217 76Q302 49 360 75Q420 103 481 187Q543 272 557 341Q572 409 552 481Q534 551 494 582Q453 615 402 626Q353 636 274 603Q195 570 157 519Q119 465 107 406Q94 345 96
331L97 325Z" />
<glyph unicode="P" glyph-name="P" horiz-adv-x="541" d="M105 289Q118 288 148 288Q186 287 224 294Q261 301 322 327Q380 353 412 387Q443 420 446 448Q449 473 415 514Q379 557 304 573Q224 590 182 592Q141 594 111 587Q101 585 95 583Q95 573 95 559Q96 538
100 453Q104 369 105 289ZM106 244Q106 183 103 120L100 34Q100 25 93 19T77 12T61 19T55 36L58 122Q61 197 61 267Q60 277 60 287Q59 366 55 451Q51 537 51 558T50 591Q50 595 51 599T53 606T58 612T62 617T68 621T75 624T82 626T88 628T95 630T100 631Q137 640
184 637Q230 635 314 617Q403 598 449 543Q496 487 491 442Q486 400 445 357Q407 315 340 286Q274 258 232 250Q190 242 148 243Q121 243 106 244Z" />
<glyph unicode="Q" glyph-name="Q" horiz-adv-x="689" d="M395 182T402 187T419 190T434 181L455 149Q459 143 463 137Q479 151 494 168Q553 237 578 309Q602 381 592 456Q582 525 518 566Q449 609 390 610Q330 610 265 579T149 487Q100 427 98 399L96 372Q98
367 97 362L96 307Q94 253 106 186Q118 122 152 88Q185 54 242 48Q301 41 367 71Q399 85 429 107Q423 116 418 124L396 156Q391 163 393 172ZM52 355Q50 361 50 367L53 402Q57 445 114 515Q170 584 244 619T390 655Q462 654 542 604Q624 552 636 462Q648 377 620
295Q593 214 528 139Q509 118 490 100Q501 84 514 66Q552 14 580 -21L609 -56Q615 -63 614 -72T606 -87T589 -92T574 -84L545 -49Q516 -13 478 39Q466 56 455 71Q421 45 386 30Q308 -5 237 3Q165 11 120 56Q76 101 62 178Q49 250 51 308L52 355Z" />
<glyph unicode="R" glyph-name="R" horiz-adv-x="541" d="M109 344Q114 347 119 349Q157 365 192 371Q203 376 215 383Q243 398 279 423Q332 460 352 488Q368 512 357 559Q346 606 324 617Q299 630 214 620Q126 609 107 597Q100 593 95 589Q95 582 97 571Q98 554
101 504Q104 454 109 359V344ZM72 199L64 356Q59 452 56 501Q54 550 52 567Q50 585 50 595Q50 598 50 601T52 607T55 612T58 617T62 621T66 625T70 628T75 630T80 633T84 636Q111 652 208 664Q307 677 345 657Q385 636 401 570Q417 504 389 463Q364 427 304 386Q289
376 275 366Q297 360 320 350Q380 322 401 277Q420 236 426 153Q433 78 452 36Q464 9 471 0L476 -2Q485 -5 489 -13T491 -30T480 -43T463 -45L454 -42Q447 -40 442 -37T432 -26T425 -15T418 1T411 18Q388 66 382 149Q375 224 360 258Q346 288 301 309Q261 327 229
329Q224 329 219 329Q212 328 204 328Q168 311 136 301Q122 296 112 293L117 202Q120 139 123 86L127 33Q127 24 121 17T106 9T89 14T82 30L79 84Q75 138 72 199Z" />
<glyph unicode="S" glyph-name="S" horiz-adv-x="552" d="M479 430T471 426T454 425T441 437L429 461Q417 485 407 504Q398 520 371 541Q346 561 306 568Q266 576 236 567Q206 558 167 523Q131 490 123 441Q117 396 150 366Q186 332 237 323Q295 312 348 296Q403
279 447 244Q494 206 502 156Q510 106 460 39Q411 -27 320 -46Q231 -64 171 -36Q112 -7 81 55Q52 114 51 131L50 144Q49 153 55 160T71 168T87 163T95 147L96 135Q98 123 121 75Q145 27 191 5Q237 -17 311 -2Q385 14 424 66Q462 117 457 149Q453 182 419 209Q382
238 334 253Q285 269 229 279Q166 290 119 333Q69 379 79 448Q89 513 137 557Q184 599 224 610T314 613Q365 604 399 576Q433 550 446 526Q457 505 469 481L481 456Q485 448 482 439Z" />
<glyph unicode="T" glyph-name="T" horiz-adv-x="694" d="M293 636Q297 636 302 634Q325 634 350 634Q452 634 516 636Q582 639 604 636L625 633Q634 632 639 625T644 608T636 593T619 588L598 591Q579 594 518 591Q453 589 349 589Q332 589 318 589L320 570Q322
525 332 386Q341 247 346 167Q350 87 350 65V44Q350 35 344 28T328 21T312 28T305 44V65Q305 86 301 165Q296 244 287 383Q278 522 275 567L273 590Q213 590 159 591L72 592Q63 593 57 599T50 615T57 631T73 637L160 636Q219 635 287 635Q290 635 293 636Z" />
<glyph unicode="U" glyph-name="U" horiz-adv-x="605" d="M73 678T82 677T97 669T101 652L97 622Q93 594 97 465Q101 337 128 237Q154 138 196 77Q235 21 273 13Q311 6 358 35Q407 66 445 132Q484 200 498 310Q512 422 511 483Q510 544 505 567L500 593Q498 602
503 610T518 619T534 616T544 602L549 576Q555 548 556 484Q557 419 542 304Q528 186 484 110Q440 34 381 -3Q320 -42 265 -31Q209 -20 159 52Q113 119 84 225Q56 331 52 464Q48 596 53 628L57 658Q58 667 65 672Z" />
<glyph unicode="V" glyph-name="V" horiz-adv-x="587" d="M55 612T63 615T81 616T93 604L119 542Q145 479 166 393Q186 311 219 226T282 87Q286 79 291 72Q303 103 325 166Q355 249 391 348T453 512Q479 578 487 595L495 611Q499 619 508 622T525 621T536 608T535
591L527 575Q520 560 495 496Q469 431 433 333Q397 234 367 151Q337 66 325 38Q320 27 308 20T282 19Q263 27 242 65Q211 122 177 210Q144 297 123 382Q102 465 77 525L52 586Q48 595 51 603Z" />
<glyph unicode="W" glyph-name="W" horiz-adv-x="802" d="M58 619T67 621T84 620T94 606L103 571Q112 537 137 438Q161 341 193 248Q220 167 239 131Q246 143 253 164Q282 243 300 343Q319 447 341 514Q363 580 368 593Q368 595 368 598T375 607T392 613Q407 614
413 607T418 593L417 585Q417 575 431 502Q445 427 482 348Q520 266 561 185Q590 127 605 102Q613 132 623 199Q641 311 668 410Q694 509 702 531L709 552Q712 561 720 565T737 567T750 556T752 538L744 517Q737 496 711 399Q685 302 668 192Q667 186 665 175Q659
136 656 119T647 84T634 57Q619 43 602 46T575 64Q562 83 521 165Q480 246 441 329Q401 413 386 494Q386 498 385 503Q384 502 384 500Q363 436 345 335Q326 231 296 149Q293 140 292 138T288 128T283 116T278 106T272 96T265 88T257 82T248 79T238 77T226 80Q214
85 205 100Q183 137 150 233Q118 328 93 427Q69 526 60 560L51 594Q48 603 53 611Z" />
<glyph unicode="X" glyph-name="X" horiz-adv-x="565" d="M108 9T100 13T90 27T91 44L131 117Q172 190 239 293Q249 308 258 322Q214 384 176 436Q109 528 81 572L53 616Q49 624 51 633T60 647T77 650T91 640L119 597Q147 554 213 462Q246 416 285 362Q324 420
366 477Q418 549 438 584L458 621Q463 629 472 631T489 630T499 616T498 599L477 562Q456 525 399 446Q359 391 313 323Q339 287 367 247Q456 124 481 78Q505 33 509 27L512 21Q517 13 515 4T504 -9T487 -12T473 -2L470 5Q466 11 442 56Q418 100 331 221Q308 253
286 283Q282 276 277 268Q210 167 171 95L130 22Q126 14 117 12Z" />
<glyph unicode="Y" glyph-name="Y" horiz-adv-x="630" d="M54 630T62 634T79 637T92 626L101 610Q109 595 177 508Q247 419 275 372Q302 327 317 305Q325 294 331 292Q346 299 377 336Q421 387 462 461Q504 536 520 570L537 606Q541 614 550 617T567 616T579 603T578
586L561 551Q544 515 501 439Q458 362 412 307Q396 289 389 281T369 263T347 249V243Q347 234 348 169T350 56V9Q350 -1 344 -7T328 -14T312 -8T305 8V55Q304 102 303 168Q302 233 302 243V253Q302 255 302 257Q290 265 280 280Q264 302 236 348Q210 393 142 480Q72
570 62 588L53 604Q48 612 51 621Z" />
<glyph unicode="Z" glyph-name="Z" horiz-adv-x="583" d="M51 594T50 603T54 620T69 629L127 637Q187 645 271 643Q354 641 395 642Q416 643 430 642T455 637Q464 632 468 625T472 612T468 596T460 582T451 570T445 562Q419 523 350 437Q283 352 202 234Q122 118
108 76Q103 63 101 54Q120 54 159 57Q226 63 303 72Q380 81 435 83Q461 85 480 84T511 77L522 71Q530 67 532 58T531 40T517 30T500 32L490 37Q479 40 438 38Q383 36 308 27Q231 19 163 13Q158 12 150 12T138 11T127 10T117 9T108 9T100 8T93 9T85 9T79 11T74 13Q67
15 63 19T56 28T54 38T53 49T55 61T58 71T62 82T65 91Q82 139 165 260Q246 378 315 465Q382 549 408 587Q411 592 414 597Q406 597 396 597Q354 596 270 598Q189 600 133 592L76 584Q66 583 59 588Z" />
<glyph unicode="[" glyph-name="bracketleft" horiz-adv-x="296" d="M248 712T247 703T237 689T220 684L186 690Q153 695 135 696Q125 696 121 692Q115 680 112 634Q108 574 110 500Q111 425 105 341Q99 259 96 180Q93 101 99 29Q105 -39 106 -59Q113 -63 127
-65Q164 -71 182 -72Q208 -73 219 -80L226 -84Q234 -88 236 -97T235 -114T221 -124T204 -123L197 -119Q193 -117 180 -117Q159 -116 120 -109Q64 -100 62 -66Q61 -49 54 25Q48 100 51 181Q54 261 60 344Q66 426 65 499Q63 575 67 637Q69 663 70 675T76 701T89 724Q107
741 136 741Q157 740 193 734L227 729Q236 727 242 720Z" />
<glyph unicode="\" glyph-name="backslash" horiz-adv-x="452" d="M55 661T63 665T80 666T93 655L118 602Q143 548 190 428Q236 310 274 220Q312 131 356 47L400 -38Q404 -46 402 -55T391 -68T374 -70T360 -59L316 26Q271 112 233 203Q194 293 148 412Q102 530
77 582L52 635Q48 644 51 652Z" />
<glyph unicode="]" glyph-name="bracketright" horiz-adv-x="330" d="M49 707T50 716T58 732T74 737L105 735Q135 733 161 733Q190 732 198 731Q208 730 213 726T221 716T225 703T226 689T224 677T222 667Q218 629 213 573Q208 518 209 444T216 319Q222 267 231
214Q239 161 255 105Q272 47 276 1Q280 -43 280 -62V-92Q280 -124 234 -127Q207 -129 168 -128Q130 -126 121 -125L111 -124Q102 -124 96 -117T91 -100T99 -85T115 -80H125Q133 -81 170 -83Q206 -84 230 -82Q232 -82 235 -82V-62Q235 -45 231 -3Q227 38 212 93Q195
151 186 206Q177 261 171 314Q165 367 164 443T168 577Q174 634 178 672Q178 680 179 687Q171 688 161 688Q133 688 102 690L71 692Q62 693 56 700Z" />
<glyph unicode="^" glyph-name="asciicircum" horiz-adv-x="385" d="M77 351T68 353T54 363T51 380L65 444Q79 510 92 546Q104 582 114 609Q121 627 132 634Q142 642 152 638T168 629T177 618Q188 597 223 530Q257 463 282 416T315 355T328 332L333 323Q337 315
335 306T324 293T307 291T294 302L289 310Q284 318 276 332T243 394T183 509Q162 550 149 574Q142 554 134 532Q123 498 109 435L94 370Q92 361 85 356Z" />
<glyph unicode="_" glyph-name="underscore" horiz-adv-x="536" d="M50 -43T50 -34T56 -18T72 -11H85Q97 -11 167 -10Q236 -8 321 -13Q405 -17 435 -18L465 -19Q474 -19 480 -25T487 -41T479 -57T463 -64L433 -63Q403 -62 319 -58Q236 -53 167 -55Q98 -56 86 -56H73Q64
-56 57 -50Z" />
<glyph unicode="`" glyph-name="grave" horiz-adv-x="244" d="M50 679T56 685T72 692T88 686L102 672Q115 659 151 625L187 591Q194 584 194 575T188 559T173 552T156 558L120 592Q84 627 70 640L56 654Q50 660 50 669Z" />
<glyph unicode="a" glyph-name="a" horiz-adv-x="526" d="M397 79Q395 93 389 125Q380 166 357 200Q335 233 297 250Q260 267 220 263Q181 258 151 230Q119 200 104 155Q89 110 99 74Q110 39 139 19Q168 0 220 7Q277 15 341 49Q375 67 397 79ZM443 104Q451 108
460 105T473 95Q478 87 476 78T465 64L447 55Q429 45 362 9Q291 -28 226 -37Q157 -47 114 -18T56 61Q42 111 61 169Q79 226 120 263Q162 302 215 307Q267 313 316 291Q364 269 394 226Q393 238 393 250Q388 322 365 378Q343 431 310 450Q277 470 246 464Q212 458
183 433Q152 406 142 387L129 365Q124 357 115 355T98 357T88 371T90 388L103 410Q117 435 153 467Q191 500 238 508Q286 517 333 489Q379 462 407 396Q432 332 438 253Q443 177 443 130Q443 116 443 104Z" />
<glyph unicode="b" glyph-name="b" horiz-adv-x="520" d="M102 389Q104 333 108 280Q116 170 119 99Q121 48 122 26Q135 24 159 26Q216 29 282 55Q347 81 393 128Q433 169 424 207Q413 252 366 300Q317 350 260 371Q203 391 168 392Q130 392 115 391L102 389ZM101
434L111 435Q128 437 168 437Q211 436 276 413Q342 389 398 332Q454 274 468 218Q483 156 425 97Q373 43 298 13Q225 -16 162 -19Q160 -19 152 -20T140 -21T128 -21T116 -21T105 -19T94 -15T86 -9T80 0T77 12Q77 26 74 97Q71 167 63 277Q59 341 56 410Q55 459 54
511Q53 633 52 663L50 694Q50 703 56 710T71 717T87 712T95 696L97 666Q98 635 99 511Q100 472 101 434Z" />
<glyph unicode="c" glyph-name="c" horiz-adv-x="524" d="M424 347T416 344T399 345T387 357L381 374Q376 386 351 409Q326 430 270 438Q216 446 176 422Q136 398 122 362Q106 322 97 263Q88 207 119 139Q149 72 198 47Q246 24 298 37Q352 51 383 83Q417 118 425
128L434 140Q440 147 449 148T465 145T474 130T470 113L461 101Q452 88 415 51Q375 11 309 -6Q242 -24 178 7Q115 38 78 120Q42 201 52 269Q62 334 80 379Q100 428 153 460Q206 493 277 483Q346 473 381 442Q415 412 423 390L429 372Q432 364 428 356Z" />
<glyph unicode="d" glyph-name="d" horiz-adv-x="538" d="M411 88Q411 89 411 90Q409 115 403 169Q397 223 386 272Q377 317 353 348Q332 376 281 383Q232 391 170 326Q105 258 97 205Q89 152 109 108Q129 67 169 50Q212 33 262 40Q315 47 350 61Q388 76 403 84Q407
86 411 88ZM455 719T464 719T480 713T487 697L488 643Q489 588 487 484T478 295T465 152Q458 104 458 86Q468 77 465 64Q463 55 455 50T438 47L434 48Q430 47 424 44Q406 35 367 19Q326 3 268 -5Q207 -13 152 9Q96 32 69 89Q43 145 53 212Q63 279 138 357Q215 439
287 428Q356 417 389 375Q419 337 430 282Q431 279 432 275Q433 287 434 298Q439 381 441 484T443 642L442 696Q442 705 448 712Z" />
<glyph unicode="e" glyph-name="e" horiz-adv-x="516" d="M108 290Q122 291 158 291Q204 291 274 290Q342 290 387 296Q404 298 414 301Q408 311 398 324Q369 362 334 385Q301 407 265 413Q231 418 189 396Q147 372 125 330Q115 311 108 290ZM97 244Q97 238 96
233Q91 182 110 137Q128 94 184 73Q242 50 285 58Q329 66 348 80L371 98Q378 103 387 102T402 94T407 77T398 62L375 44Q348 24 293 14Q238 4 168 31Q94 59 69 119Q45 176 51 237Q53 258 58 278Q67 316 85 350Q113 405 168 435Q223 465 272 457Q317 450 359 422Q400
396 434 351Q436 348 444 338T456 323T463 310T467 293T461 276Q457 271 452 268T444 262T432 258T421 256T407 254T393 251Q345 245 274 245Q204 246 158 246Q113 246 106 245L97 244Z" />
<glyph unicode="f" glyph-name="f" horiz-adv-x="365" d="M50 424T50 433T56 449T72 456Q80 456 96 456T119 456Q121 475 124 495Q136 584 165 632Q177 652 181 659T195 676T213 690Q231 698 268 689L297 681Q305 679 310 671T313 654T302 640T285 637L256 645Q239
649 231 649Q222 640 203 609Q179 569 168 489Q166 473 165 457Q187 457 205 457Q235 457 263 460L291 462Q301 463 308 457T316 442T311 426T295 417L267 415Q237 412 205 412Q186 412 161 412Q159 373 162 336Q166 264 174 206Q181 147 187 106L193 65Q194 55
189 48T174 39T158 43T149 58L143 100Q137 141 129 200Q121 260 117 334Q114 371 116 411H73Q64 411 57 417Z" />
<glyph unicode="g" glyph-name="g" horiz-adv-x="474" d="M380 478T389 479T405 474T413 458L416 419Q419 378 423 295Q426 211 424 111Q421 10 404 -49Q385 -111 340 -144Q296 -178 227 -176Q164 -174 133 -165Q101 -155 92 -149L85 -145Q78 -140 76 -131T79
-114T94 -104T111 -107L117 -112Q123 -115 146 -122Q171 -130 228 -131Q281 -132 313 -108T360 -36Q373 7 377 79L366 76Q335 66 253 74Q170 81 118 119Q63 157 53 210Q42 262 75 330Q109 398 188 434Q266 468 313 461Q347 457 369 448L368 455Q367 464 373 471ZM379
127Q381 217 378 293Q375 357 372 395L360 402Q344 412 307 417Q272 422 207 393Q142 364 116 310Q89 256 97 219Q104 184 144 155Q186 125 257 119Q330 112 353 119L379 127Z" />
<glyph unicode="h" glyph-name="h" horiz-adv-x="510" d="M62 730T71 730T88 725T95 709L98 657Q100 604 102 491Q102 446 103 407Q113 427 124 439Q148 466 195 482Q242 496 297 483Q353 469 393 423Q431 379 446 342Q460 305 461 250Q461 198 454 146Q447 95
443 71L438 48Q436 39 429 34T412 30T398 39T394 56L399 80Q403 103 410 152Q416 201 416 250Q416 297 404 326Q392 355 359 393Q329 429 287 439Q244 450 209 439Q174 428 157 409Q140 390 127 344Q113 296 113 236Q114 173 116 127Q119 80 121 28Q122 27 122
26T122 19T123 10T123 0T121 -11T118 -20T112 -26T103 -29T91 -25Q86 -23 83 -21T78 -17T75 -12T73 -7T73 -3T73 0T74 3T76 6Q73 40 68 135T61 304T57 490Q55 603 53 655L50 707Q50 716 56 723Z" />
<glyph unicode="i" glyph-name="i" horiz-adv-x="172" d="M75 658T81 664T97 671T113 664L116 661Q123 655 123 646T117 630T101 623T84 629L81 632Q75 639 75 648ZM65 486T74 486T89 479T96 463L95 414Q95 366 95 312Q96 256 96 197Q97 138 98 107Q100 76 101
56L102 36Q103 27 97 20T81 13T65 18T57 33L56 53Q55 73 53 105Q52 137 52 196T50 310Q50 365 50 414L51 464Q51 473 58 479Z" />
<glyph unicode="j" glyph-name="j" horiz-adv-x="340" d="M212 639T218 645T234 652T250 646L253 643Q260 636 260 627T254 611T238 604T221 611L218 614Q212 620 212 629ZM239 476T248 477T264 473T273 458L278 418Q283 377 288 288Q294 198 285 88T260 -78Q244
-143 204 -163Q166 -182 122 -167Q82 -154 69 -143L58 -134Q51 -129 50 -120T55 -103T70 -95T87 -99L97 -108Q104 -114 136 -124Q163 -133 184 -122Q205 -112 217 -67Q230 -14 239 92T243 285Q238 373 233 412L228 452Q227 461 233 468Z" />
<glyph unicode="k" glyph-name="k" horiz-adv-x="498" d="M68 706T77 706T93 698T99 682L95 609Q92 539 113 410Q122 358 128 316L137 324Q163 347 194 374T283 452Q344 504 363 514L379 522Q387 526 396 523T409 512T410 494T399 481L382 473Q369 467 313 419T226
343L235 333Q247 319 322 206Q396 95 415 67Q434 39 440 29L445 20Q450 12 448 3T438 -10T421 -13T407 -3L402 6Q396 14 378 42Q359 70 285 181Q211 292 201 304L193 313Q179 301 167 291L141 268Q138 265 134 264Q138 232 140 207Q144 137 145 95T145 17L144 -18Q144
-27 137 -33T121 -40T106 -33T99 -17L100 19Q101 54 100 94T95 204Q90 272 69 402Q47 536 51 611L54 684Q54 693 61 699Z" />
<glyph unicode="l" glyph-name="l" horiz-adv-x="170" d="M63 706T72 706T88 699T95 683V647Q95 610 96 462T101 230Q104 147 108 121T116 83L120 69Q123 61 119 53T105 42T88 43T77 57L73 70Q69 85 65 114T56 229Q53 313 52 461T50 647V683Q50 692 56 699Z" />
<glyph unicode="m" glyph-name="m" horiz-adv-x="749" d="M80 472T89 471T104 463T109 446L102 378Q97 340 96 294Q108 328 126 360Q173 446 238 459Q302 473 343 447Q382 421 407 332Q415 354 425 371Q455 419 480 434Q510 451 569 424Q624 399 649 356Q671 317
685 261Q700 204 699 157Q699 113 698 82Q697 52 698 45L699 37Q700 28 694 21T679 12T663 17T654 33L653 41Q652 51 653 83Q654 114 654 158Q654 199 642 250Q629 300 610 334Q593 364 550 383Q512 400 502 394Q487 386 464 347Q449 322 437 276Q432 257 427 233Q430
206 429 185Q425 136 420 85Q415 34 414 20Q414 19 415 18T416 13T415 6T408 1T392 -3Q380 -3 373 2T364 18T362 37T364 55T365 64Q363 123 380 222Q381 228 382 235Q380 252 376 271Q371 292 365 315Q344 392 318 409Q293 425 247 415Q202 406 165 338Q125 265
115 179Q105 88 103 76Q104 74 104 73T105 67T102 59T94 53T77 52T61 59T54 71T52 84T53 95T54 101Q51 139 50 227Q50 314 57 383L64 451Q65 460 72 466Z" />
<glyph unicode="n" glyph-name="n" horiz-adv-x="473" d="M63 460T72 460T88 455T95 439L97 376Q97 369 97 363Q115 402 146 435Q193 485 237 489Q281 493 331 460Q380 427 396 387Q412 351 418 293Q423 236 423 177Q423 119 423 96Q422 75 422 65V56Q422 46 415
40T399 33T384 39T377 56V65Q377 75 378 98Q378 120 378 177Q378 234 373 288Q367 340 355 370Q344 397 306 422Q269 447 241 444Q214 442 179 404Q142 364 126 314Q110 261 110 203Q110 141 111 106Q112 104 113 101T114 91T113 78T105 69T86 67Q76 68 70 73T63
84T61 96T62 107T63 112Q58 159 56 236Q53 313 52 375L50 438Q50 447 56 453Z" />
<glyph unicode="o" glyph-name="o" horiz-adv-x="565" d="M58 252Q59 291 69 317Q81 348 142 402Q202 456 243 469Q285 481 348 475Q415 469 464 420Q515 370 515 311Q516 256 484 189Q453 122 397 70Q340 16 270 3Q198 -10 156 15Q115 39 84 106Q53 171 51 205L50
234Q50 244 58 252ZM100 187Q107 162 124 125Q150 71 179 54Q206 38 262 47Q318 58 366 103Q416 149 443 208Q471 266 470 311Q470 351 433 388Q395 425 344 430Q289 436 257 426Q224 416 172 369Q119 322 111 301Q103 279 103 240L102 196Q102 192 100 187Z" />
<glyph unicode="p" glyph-name="p" horiz-adv-x="494" d="M122 135Q126 136 129 135L148 131Q165 128 187 130Q209 131 257 144Q302 157 335 188T385 269Q402 317 399 343Q396 368 373 398T306 447Q260 466 212 466Q163 465 123 450Q104 443 95 436Q96 419 100
376Q104 325 112 240Q118 186 122 135ZM126 90Q127 85 127 81Q133 6 136 -46Q138 -97 142 -113L147 -132Q149 -140 145 -148T131 -159T114 -156T103 -142L99 -124Q94 -104 91 -49Q88 3 82 77Q81 92 80 108Q74 168 68 236Q59 321 55 372T50 439Q50 450 54 459T69
474T87 484T108 492Q155 510 211 511Q269 511 323 489Q379 465 409 425T443 348Q448 313 428 254Q408 195 367 156T269 101Q216 86 190 85Q162 83 140 87L126 90Z" />
<glyph unicode="q" glyph-name="q" horiz-adv-x="564" d="M352 -116Q354 -74 356 -2Q356 38 359 81Q351 78 343 76Q318 68 263 56Q202 43 148 61Q91 81 64 127Q36 174 64 253Q91 327 146 376T281 445Q352 462 380 461L383 489Q384 498 391 504T408 509T423 501T428
484L425 452Q434 444 433 432Q432 420 421 415Q417 371 416 308Q413 228 408 148Q407 139 407 130Q408 127 409 125Q415 112 405 101Q402 47 400 -3Q399 -75 397 -118Q396 -133 396 -143Q432 -120 455 -104L479 -87Q487 -82 496 -83T510 -93T515 -110T505 -124L481
-141Q457 -158 420 -181Q416 -184 413 -186T400 -193T383 -199T367 -201T355 -194T350 -175Q350 -164 352 -116ZM362 130Q362 141 363 151Q369 230 371 309Q372 372 376 416Q348 415 291 401Q222 384 176 343T107 238Q86 179 103 149Q121 118 162 104Q206 90 253
100Q307 111 329 118Q349 125 362 130Z" />
<glyph unicode="r" glyph-name="r" horiz-adv-x="321" d="M62 478T71 479T87 474T95 458L98 420Q98 410 99 397Q128 454 157 476Q190 501 206 504Q226 509 247 497L261 489Q269 484 271 475T270 458T256 448T238 450L225 458Q219 461 216 460Q208 458 185 440Q161
422 133 364Q122 340 114 321Q106 300 103 283Q105 217 107 183Q110 143 114 100Q118 58 119 49Q121 41 111 40Q92 38 75 49Q72 51 72 53Q66 77 59 158Q53 239 57 277Q57 281 58 286Q58 293 57 300Q57 324 56 345Q55 391 53 417L50 455Q49 464 55 471Z" />
<glyph unicode="s" glyph-name="s" horiz-adv-x="488" d="M405 372T398 367T381 362T366 372L351 393Q339 411 313 430Q288 448 255 455Q225 462 188 448Q150 432 132 413Q117 398 120 362T142 311Q165 292 213 277Q267 261 331 232Q400 202 425 165Q456 120 418
66Q384 17 322 4Q265 -7 187 9Q105 25 77 62Q67 75 63 81T55 96T50 115V126Q50 135 56 142T72 149T88 143T95 127V117Q98 109 113 89Q130 66 196 53Q265 38 313 48Q357 58 381 92Q401 120 388 139Q370 166 313 191Q252 219 200 234Q144 252 114 275Q79 302 75 358T99
445Q124 470 172 489Q221 509 265 499Q307 490 340 466Q372 442 388 418L403 398Q408 390 407 381Z" />
<glyph unicode="t" glyph-name="t" horiz-adv-x="430" d="M50 410T50 419T56 435T72 442L120 443Q153 444 200 442Q198 513 197 560Q195 629 196 641L197 652Q197 661 204 667T221 673T236 665T242 648L241 637Q240 628 242 561Q243 508 245 439Q246 439 247 439Q324
435 340 435L357 436Q367 436 373 430T380 414T375 398T359 391L341 390Q323 390 246 394Q249 304 261 218Q273 128 278 78Q284 27 284 11Q283 -3 283 -13V-24Q283 -33 277 -39T261 -46T245 -40T238 -24V-13Q238 -3 239 12Q239 25 234 73Q228 123 216 212Q204 302
201 397Q154 399 121 398L73 397Q64 397 57 403Z" />
<glyph unicode="u" glyph-name="u" horiz-adv-x="468" d="M63 472T72 472T88 467T95 450L96 419Q96 389 102 314Q108 242 130 188Q150 137 185 117Q218 97 244 103Q270 108 313 163Q358 220 366 276Q375 336 374 361Q372 387 369 410L366 435Q364 444 370 451T385
460T401 456T410 441L414 417Q417 391 419 363Q420 334 411 269Q400 202 349 136Q295 67 253 59Q210 50 162 78Q114 106 88 171Q63 231 57 311Q51 387 51 418L50 449Q50 459 56 465Z" />
<glyph unicode="v" glyph-name="v" horiz-adv-x="439" d="M58 476T67 478T84 476T94 462L99 441Q104 422 139 336Q175 248 208 185Q227 150 237 129Q247 150 258 191Q275 256 303 339Q331 423 339 441L347 456Q351 465 360 468T377 467T389 453T388 436L380 420Q372
406 345 325Q318 243 301 180Q283 111 265 88Q259 82 249 76T225 70T205 89Q201 101 168 164Q134 229 98 319Q61 409 55 431L51 451Q48 460 53 468Z" />
<glyph unicode="w" glyph-name="w" horiz-adv-x="686" d="M54 449T62 453T79 455T92 444L115 400Q140 353 164 242Q181 163 195 131Q201 142 208 159Q235 227 266 323Q297 422 308 444Q316 457 326 462Q355 474 371 433Q382 405 426 300Q469 197 498 154Q506 143
512 134Q517 150 522 171Q543 250 561 309Q580 370 586 390L593 411Q595 420 603 424T621 426T634 415T636 398L629 377Q623 356 604 296Q586 238 565 158Q565 156 564 149T561 136T557 120T552 104T546 90T538 77T528 70T517 68T503 74Q494 81 461 129Q429 175
384 282Q352 360 337 396Q326 366 309 310Q278 212 249 142Q249 141 248 139Q245 131 244 127T239 116T232 104T225 93T216 84T206 78T194 75T181 79Q171 83 165 92Q144 121 120 233Q97 337 75 379L52 423Q48 431 51 440Z" />
<glyph unicode="x" glyph-name="x" horiz-adv-x="459" d="M80 48T73 53T64 67T67 84L114 150Q150 201 190 256Q186 262 177 273Q112 362 83 406L54 449Q49 457 50 466T59 480T76 484T91 474L120 431Q149 388 214 300Q217 294 218 293Q270 362 306 400L343 438Q349
444 358 444T374 439T381 423T375 407L339 369Q303 332 250 261Q248 258 246 255Q289 197 316 159Q352 108 378 78L405 47Q411 40 410 31T402 15T386 10T370 18L344 49Q317 80 279 133Q255 167 218 217Q182 169 150 124L104 58Q99 51 90 50Z" />
<glyph unicode="y" glyph-name="y" horiz-adv-x="489" d="M419 512T427 508T439 495T438 478L416 435Q395 393 358 301Q326 221 299 139Q298 137 297 135Q293 123 290 111Q257 12 225 -51Q192 -115 172 -136L155 -156Q149 -163 140 -163T124 -158T116 -143T121
-126L139 -107Q154 -89 185 -30Q216 30 247 125Q249 133 252 140L246 148Q233 166 194 230Q157 293 118 345Q78 400 65 425L53 448Q48 456 51 465T62 478T79 480T92 469L105 446Q116 424 155 372Q195 318 233 253Q256 216 270 193Q292 256 316 317Q354 411 376
455L397 498Q402 507 410 509Z" />
<glyph unicode="z" glyph-name="z" horiz-adv-x="479" d="M57 444T57 453T62 468T79 476L150 477Q222 478 293 476Q329 475 347 469Q363 463 372 450T376 420Q369 401 344 374T262 291Q162 196 114 146Q102 133 97 124Q142 117 207 115Q275 113 331 109Q392 104
408 94L420 86Q427 81 429 72T426 55T412 45T395 48L384 56Q373 61 327 64Q273 68 206 70Q137 72 90 80Q63 85 54 103Q48 114 51 128Q55 149 82 177Q131 228 231 324Q308 398 329 427Q316 430 292 431Q222 433 151 432L79 431Q70 431 64 437Z" />
<glyph unicode="{" glyph-name="braceleft" horiz-adv-x="383" d="M332 683T333 674T330 658T316 648L286 642Q263 637 227 604Q192 573 186 530Q179 482 181 424Q183 357 162 322Q146 296 125 279Q134 271 142 260Q169 226 171 162Q172 106 175 52Q177 2 205
-52Q229 -100 240 -109Q250 -113 273 -113L303 -112Q312 -112 319 -118T326 -134T320 -150T304 -157L274 -158Q239 -159 220 -149Q205 -142 194 -126T165 -73Q132 -10 130 50Q127 104 126 162Q124 210 107 233Q92 252 81 252Q78 254 74 257T59 271T50 287T61 297Q68
298 89 310Q109 320 123 344T136 422Q134 484 141 537Q150 595 197 637Q242 679 277 686L307 692Q316 694 324 689Z" />
<glyph unicode="|" glyph-name="bar" horiz-adv-x="156" d="M63 659T72 659T88 653T95 637V624Q95 611 97 493Q99 375 100 248Q102 123 105 54Q107 -16 106 -54Q105 -90 106 -105L107 -121Q107 -130 101 -137T86 -144T69 -139T62 -123L61 -107Q60 -90 61 -52Q62
-16 60 52Q57 122 55 248Q54 371 52 492Q50 610 50 624V637Q50 646 56 652Z" />
<glyph unicode="}" glyph-name="braceright" horiz-adv-x="408" d="M49 697T50 706T58 721T75 726L104 722Q140 717 174 688Q209 659 220 613Q230 571 230 511Q230 454 240 385Q249 322 275 300Q302 277 320 275Q321 276 323 276T329 277T338 276T347 271T355
259Q361 242 356 235T341 226L331 225Q316 222 287 206Q262 193 254 173Q246 150 248 108Q250 59 248 -11Q245 -88 218 -121Q189 -155 165 -155H151Q142 -155 135 -149T128 -133T135 -117T151 -110H164Q171 -107 184 -92Q201 -71 203 -9Q205 59 203 106Q200 158
212 189Q226 225 265 246Q267 247 269 248Q258 255 246 265Q207 299 195 378Q185 451 185 510Q185 565 176 602Q168 634 145 654Q121 674 98 677L70 681Q60 682 55 689Z" />
<glyph unicode="~" glyph-name="asciitilde" horiz-adv-x="595" d="M67 226T60 231T51 245T54 262L80 301Q111 347 156 358Q200 369 258 343Q313 318 364 268Q410 224 428 216Q440 212 448 216Q461 224 476 253Q493 286 497 299L501 315Q504 324 512 328T529 331T542
320T545 303L540 287Q535 269 516 232Q495 191 471 178Q443 162 411 175Q384 186 333 236Q287 280 239 302Q195 322 167 315Q139 308 117 276L91 237Q86 230 77 228Z" />
</font>
</defs>
</svg>
